<?xml version="1.0" encoding="UTF-8" standalone="no"?>
<!DOCTYPE svg PUBLIC "-//W3C//DTD SVG 1.1//EN" "http://www.w3.org/Graphics/SVG/1.1/DTD/svg11.dtd">
<svg width="100%" height="100%" viewBox="0 0 377 377" version="1.1" xmlns="http://www.w3.org/2000/svg" xmlns:xlink="http://www.w3.org/1999/xlink" xml:space="preserve" xmlns:serif="http://www.serif.com/" style="fill-rule:evenodd;clip-rule:evenodd;stroke-linecap:square;stroke-miterlimit:1.5;">
    <g transform="matrix(1,0,0,1,-1052,-1315.78)">
        <g>
            <g transform="matrix(1.29765,0,0,1.29765,-399.184,-458.099)">
                <circle cx="1262.62" cy="1511.91" r="125.442"/>
            </g>
            <g>
                <path d="M1166.89,1428.28L1166.89,1570.93C1166.89,1570.93 1207.37,1572.86 1219.12,1570.55C1226.77,1569.05 1237.4,1559.38 1237.57,1551.97L1237.5,1449.65C1237.98,1447.49 1231.62,1430.74 1219.46,1428.64L1166.89,1428.28ZM1225,1450.5L1225.07,1551.1C1224.72,1551.63 1223.45,1553.53 1222.44,1554.51C1220.65,1556.25 1218.59,1557.92 1216.71,1558.29C1209.65,1559.67 1191.56,1559.36 1179.39,1558.94L1179.39,1440.87L1218.01,1441.13C1219.81,1441.75 1221.03,1443.5 1222.11,1445C1223.45,1446.87 1224.61,1449.54 1225,1450.5Z" style="fill:white;"/>
                <g transform="matrix(0.832826,0,0,0.902669,214.909,144.456)">
                    <path d="M1314.11,1476.49L1314.16,1448.29C1315.07,1448.47 1306.87,1429.2 1295.7,1428.29C1278.23,1426.87 1262.45,1427.82 1262.45,1427.82C1261.12,1427.82 1242.59,1437.1 1243.98,1445.53L1243.72,1549.17C1242.31,1561.54 1259.41,1571.67 1260.79,1570.6L1296.16,1570.65C1296.79,1571.59 1313.3,1560.11 1314.52,1549.54L1313.78,1499.24L1279.49,1499.24" style="fill:none;stroke:white;stroke-width:14.39px;"/>
                </g>
            </g>
            <g>
                <g>
                    <g transform="matrix(1.10945,0,0,1.10295,-255.046,-140.182)">
                        <path d="M1268.02,1567.51C1249.84,1546.38 1240.16,1521.02 1240.16,1490.08C1240.16,1430.96 1288.15,1382.97 1347.27,1382.97C1406.39,1382.97 1454.39,1430.96 1454.39,1490.08C1454.39,1521.04 1444.37,1544.2 1426.47,1566.29" style="fill:none;stroke:rgb(255,49,49);stroke-width:17.15px;"/>
                    </g>
                    <g transform="matrix(0.765778,-0.643105,0.483556,0.575796,-508.206,1410.99)">
                        <rect x="1137.87" y="1600.43" width="12.478" height="13.051" style="fill:rgb(255,49,49);"/>
                    </g>
                    <g transform="matrix(-0.765778,-0.643105,-0.483556,0.575796,2989.64,1411.17)">
                        <rect x="1137.87" y="1600.43" width="12.478" height="13.051" style="fill:rgb(255,49,49);"/>
                    </g>
                    <g transform="matrix(0.999557,-0.0297639,0.0223798,0.751576,-73.489,339.25)">
                        <rect x="1137.87" y="1600.43" width="12.478" height="13.051" style="fill:rgb(255,49,49);"/>
                    </g>
                    <g transform="matrix(-1.06372,-0.0316745,-0.0223798,0.751576,2626.4,341.994)">
                        <rect x="1137.87" y="1600.43" width="12.478" height="13.051" style="fill:rgb(255,49,49);"/>
                    </g>
                    <g transform="matrix(0.735589,0.677428,-0.509364,0.553096,1120.07,-253.253)">
                        <rect x="1137.87" y="1600.43" width="12.478" height="13.051" style="fill:rgb(255,49,49);"/>
                    </g>
                    <g transform="matrix(-0.735589,0.677428,0.509364,0.553096,1360.18,-252.707)">
                        <rect x="1137.87" y="1600.43" width="12.478" height="13.051" style="fill:rgb(255,49,49);"/>
                    </g>
                    <g transform="matrix(0,1,0.751909,5.55112e-17,31.8415,225.772)">
                        <rect x="1137.87" y="1600.43" width="12.478" height="13.051" style="fill:rgb(255,49,49);"/>
                    </g>
                </g>
                <g>
                    <g transform="matrix(0.918622,0,0,0.918622,88.0566,113.081)">
                        <circle cx="1254.16" cy="1514.07" r="20.607" style="fill:rgb(255,49,49);"/>
                    </g>
                    <path d="M1203.95,1526.37L1306.84,1439.61L1216.51,1539.59L1203.95,1526.37Z" style="fill:rgb(255,49,49);"/>
                </g>
            </g>
            <g transform="matrix(1.19761,0,0,1.19761,-176.583,-298.973)">
                <path d="M1182.97,1348.31C1269.68,1348.31 1340.08,1418.71 1340.08,1505.42C1340.08,1592.13 1269.68,1662.53 1182.97,1662.53C1096.26,1662.53 1025.86,1592.13 1025.86,1505.42C1025.86,1418.71 1096.26,1348.31 1182.97,1348.31ZM1182.97,1374.4C1255.28,1374.4 1313.99,1433.11 1313.99,1505.42C1313.99,1577.73 1255.28,1636.44 1182.97,1636.44C1110.66,1636.44 1051.96,1577.73 1051.96,1505.42C1051.96,1433.11 1110.66,1374.4 1182.97,1374.4Z" style="fill:rgb(255,49,49);"/>
            </g>
            <g transform="matrix(0.90804,-0.479131,0.602735,1.14229,-755.653,417.366)">
                <rect x="1303.56" y="1447.82" width="11.054" height="8.103" style="fill:white;"/>
                <path d="M1314.61,1447.82L1303.56,1447.82L1303.56,1455.92L1314.61,1455.92L1314.61,1447.82ZM1307.53,1451.87L1309.08,1453.1L1310.63,1451.87L1309.08,1450.63L1307.53,1451.87Z" style="fill:white;"/>
            </g>
        </g>
    </g>
</svg>
